<svg id="Layer_1" data-name="Layer 1" xmlns="http://www.w3.org/2000/svg" viewBox="0 0 620 464"><defs><style>.cls-1{fill:#55adb7;}.cls-2{fill:#e9fbfb;}.cls-3{fill:#eb812b;}.cls-4{fill:#efb72e;}.cls-5{fill:#ffe98c;}.cls-6{fill:#d1d3d4;}.cls-7{fill:#f1f2f2;}.cls-8{fill:#392b4c;}.cls-9{fill:#404f64;}.cls-10{fill:#fee9ca;}.cls-11{fill:#7e261a;}.cls-12{fill:#e6734a;}.cls-13{fill:#364564;}.cls-14{opacity:0.4;}.cls-15{fill:#f9542c;}.cls-16{fill:#3c9a75;}.cls-17{fill:#4aa883;}.cls-18{fill:#5abf94;}.cls-19{fill:#7edfd6;}</style></defs><title>Rocket</title><path class="cls-1" d="M427.19,443.12a44.65,44.65,0,0,0-11.74,5.15c-10.53,6.32-18.95,13.85-24,24A41,41,0,0,0,387.25,490c-.13,9.4,4.39,20.06,9.44,28.32,0,0-48.27-40.52-102.14,4.7,2.09-1.76-16.76-19.86-18.14-21-33.21-27.69-84.34-29.08-119.07-2a66.83,66.83,0,0,0-18.84,23,89.71,89.71,0,0,0-55.16-.13c-36.81-18-76.83-17.9-90.89.75a24.86,24.86,0,0,0-3.35,6.08q-1.42-.06-2.88-.06A69.92,69.92,0,0,0-54,541.91V590.7H309.39a61.12,61.12,0,0,1,16.87-38.76c52.24-43.85,103.54-7.83,103.54-7.83,5.6-32.1,49.68-36.8,49.68-36.8-10-35.23,28.36-39.93,28.36-39.93l4.25-149.95,30.51,5,7.23,123.81a12.8,12.8,0,0,1,11,9.39c9.18-9.23,30.78-8.17,40.59-.78,10.13,7.64,10.28,22.21,1.86,32.1,0,0,34.05,4.7,40.11,32.89,0,0,4.67,15.66-5.59,23.49,4.1-3.13,17.88-1.63,22.47-1.16,28.72,3,51.13,24.66,50.56,48.53H722V518.6a65.3,65.3,0,0,0-12.88,1.54,76.15,76.15,0,0,0-11.61-20.66c-21.69-26.42-65.06-25.25-65.06-25.25a40.48,40.48,0,0,0,7.42-22.17c0-4.84-2.23-10.82-4.59-15.19C626.71,421,603.09,411,582.78,413c-1.75.17-14,2.35-15.82,4.89,0-.28-17.13-114.83-17.13-114.83H505.48l-15.43,90.17s-59.54-2.91-47.48,48.45c-.5-.68-10.41.55-11.41.69A33.19,33.19,0,0,0,427.19,443.12Z"/><path class="cls-2" d="M660.29,542.17c-4.59-.47-18.37-2-22.47,1.16,10.26-7.83,5.59-23.49,5.59-23.49C637.35,491.65,603.3,487,603.3,487c8.42-9.89,8.27-24.46-1.86-32.1-9.81-7.39-31.41-8.45-40.59.78a12.8,12.8,0,0,0-11-9.39L542.6,322.43l-30.51-5-4.25,150s-53-3.82-43,31.42c0,0-54.13-13.85-54.13,33.64,0,0-32.23-24.35-84.47,19.5a61.12,61.12,0,0,0-16.87,38.76h123c.75-9.56,5.61-24.63,25.85-38.37,0,0,28.69-17.61,64.37,0,0,0,2.09-27.6,38.47-28.77,0,0,35.68,4.11,33.58,31.71,0,0,0,8.81-2.79,12.92,0,0,30.78-4.11,51.76,14.68a63.9,63.9,0,0,1,7.49,7.83h59.72C711.42,566.83,689,545.12,660.29,542.17Z"/><path class="cls-3" d="M552.19,296.33s10.27,7.64,6.93,23.88c0,0-2.39-8.8-9.56-10.18,0,0,9.27,11.36,5.11,23.3v1.76a73.49,73.49,0,0,0-6.3-8.22s3.82,13.9-4.06,22.51a13.62,13.62,0,0,0-5-7.24s3.28,16.64-9.34,21.92c-12.63-5.28-9.35-21.92-9.35-21.92a13.64,13.64,0,0,0-5,7.24c-7.89-8.61-4.06-22.51-4.06-22.51a72.81,72.81,0,0,0-6.31,8.22v-1.76c-4.16-11.94,5.11-23.3,5.11-23.3-7.16,1.38-9.55,10.18-9.55,10.18-3.34-16.24,6.92-23.88,6.92-23.88Z"/><path class="cls-4" d="M545.84,293.59s8,10.24,7.23,15.47a8.21,8.21,0,0,0-5.6-2s4.25,12.72,2,19.57a13.38,13.38,0,0,0-3.64-3.42c.83.52-1.47,7-1.81,8a34.19,34.19,0,0,1-4.06,8.25c-3.3,4.87-7.81,9.18-10,14.55-2.22-5.37-6.72-9.68-10-14.55a33.82,33.82,0,0,1-4.06-8.25c-.35-1-2.64-7.51-1.81-8a13.52,13.52,0,0,0-3.65,3.42c-2.24-6.85,2-19.57,2-19.57a8.2,8.2,0,0,0-5.59,2c-.78-5.23,7.23-15.47,7.23-15.47Z"/><path class="cls-5" d="M542.31,293.59s4,27.8-12.36,59.31c-16.33-31.51-12.36-59.31-12.36-59.31Z"/><path class="cls-3" d="M609.88,291.66s5.37,4,3.62,12.49c0,0-1.25-4.61-5-5.32,0,0,4.85,5.93,2.68,12.18v.92a38.77,38.77,0,0,0-3.3-4.3s2,7.27-2.12,11.78a7.17,7.17,0,0,0-2.63-3.79s1.72,7.47-4.88,10.24c-6.61-2.77-4.89-10.24-4.89-10.24a7.17,7.17,0,0,0-2.63,3.79c-4.12-4.51-2.12-11.78-2.12-11.78a37.44,37.44,0,0,0-3.3,4.3V311c-2.17-6.25,2.67-12.18,2.67-12.18-3.74.71-5,5.32-5,5.32-1.75-8.5,3.62-12.49,3.62-12.49Z"/><path class="cls-4" d="M606.56,290.23s4.18,5.35,3.78,8.08a4.34,4.34,0,0,0-2.93-1s2.22,6.65,1.05,10.24a6.94,6.94,0,0,0-1.9-1.79c.43.27-.77,3.67-.95,4.2a18,18,0,0,1-2.12,4.31c-1.73,2.55-4.09,4.81-5.24,7.61-1.16-2.8-3.52-5.06-5.25-7.61a17.61,17.61,0,0,1-2.12-4.31c-.18-.53-1.38-3.93-1-4.2a6.94,6.94,0,0,0-1.9,1.79c-1.17-3.59,1.05-10.24,1.05-10.24a4.34,4.34,0,0,0-2.93,1c-.4-2.73,3.78-8.08,3.78-8.08Z"/><path class="cls-5" d="M604.71,290.23s2.07,14.54-6.46,31c-8.54-16.48-6.47-31-6.47-31Z"/><path class="cls-6" d="M587.72,264.8c-5-2-12.52-5.62-15.34-7-.08.31-.15.63-.22.94a136.53,136.53,0,0,1-5.2,16.83,127.06,127.06,0,0,0,18.56,6.87,45.45,45.45,0,0,1,1.79-16.55C587.43,265.52,587.59,265.17,587.72,264.8Z"/><path class="cls-6" d="M588.26,287.64c-.74-7.07-.76-14.82,1-21.75a32.87,32.87,0,0,1,1.82-5.25c1.2-2.7,3.55-6.85,6.32-7.46-3.45.61-6.38,4.76-7.88,7.46a30.12,30.12,0,0,0-2.26,5.25c-2.25,6.93-2.23,14.68-1.31,21.75.11.81.23,1.61.36,2.39h2.19C588.44,289.25,588.34,288.45,588.26,287.64Z"/><path class="cls-6" d="M609.18,265.89a30.16,30.16,0,0,0-2.27-5.25c-1.61-2.91-4.88-7.5-8.66-7.54h-.09c3,.1,5.6,4.65,6.89,7.53a32.84,32.84,0,0,1,1.81,5.25c1.82,6.93,1.8,14.68,1.06,21.75-.09.81-.19,1.61-.29,2.39h2.49c.14-.78.26-1.58.37-2.39C611.41,280.57,611.43,272.82,609.18,265.89Z"/><path class="cls-7" d="M591.13,260.64a32.87,32.87,0,0,0-1.82,5.25c-1.81,6.93-1.79,14.68-1,21.75.08.81.18,1.61.29,2.39h19.08c.1-.78.2-1.58.29-2.39.74-7.07.76-14.82-1.06-21.75a32.84,32.84,0,0,0-1.81-5.25c-1.29-2.88-3.88-7.43-6.89-7.53a5.51,5.51,0,0,0-.71.07C594.68,253.79,592.33,257.94,591.13,260.64Z"/><path class="cls-8" d="M588.55,290h-2.19c.11.62.22,1.23.34,1.82a92.92,92.92,0,0,0,23.09,0c.12-.59.23-1.2.33-1.82H588.55Z"/><path class="cls-3" d="M446.54,291.66s-5.37,4-3.62,12.49c0,0,1.25-4.61,5-5.32,0,0-4.85,5.93-2.68,12.18v.92a38.77,38.77,0,0,1,3.3-4.3s-2,7.27,2.12,11.78a7.17,7.17,0,0,1,2.63-3.79s-1.72,7.47,4.89,10.24c6.6-2.77,4.88-10.24,4.88-10.24a7.17,7.17,0,0,1,2.63,3.79c4.12-4.51,2.12-11.78,2.12-11.78a37.44,37.44,0,0,1,3.3,4.3V311c2.17-6.25-2.67-12.18-2.67-12.18,3.74.71,5,5.32,5,5.32,1.75-8.5-3.62-12.49-3.62-12.49Z"/><path class="cls-4" d="M449.86,290.23s-4.18,5.35-3.78,8.08a4.34,4.34,0,0,1,2.93-1s-2.22,6.65-1.05,10.24a7.12,7.12,0,0,1,1.9-1.79c-.43.27.77,3.67.95,4.2a18,18,0,0,0,2.12,4.31c1.73,2.55,4.09,4.81,5.25,7.61,1.15-2.8,3.51-5.06,5.24-7.61a17.61,17.61,0,0,0,2.12-4.31c.18-.53,1.38-3.93.95-4.2a6.94,6.94,0,0,1,1.9,1.79c1.17-3.59-1.05-10.24-1.05-10.24a4.34,4.34,0,0,1,2.93,1c.4-2.73-3.78-8.08-3.78-8.08Z"/><path class="cls-5" d="M451.71,290.23s-2.07,14.54,6.47,31c8.54-16.48,6.46-31,6.46-31Z"/><path class="cls-6" d="M468.7,264.8c5-2,12.52-5.62,15.34-7,.08.31.14.63.22.94a136.53,136.53,0,0,0,5.2,16.83,127.06,127.06,0,0,1-18.56,6.87,45.45,45.45,0,0,0-1.79-16.55C469,265.52,468.83,265.17,468.7,264.8Z"/><path class="cls-6" d="M468.16,287.64c.74-7.07.76-14.82-1.05-21.75a32.87,32.87,0,0,0-1.82-5.25c-1.2-2.7-3.55-6.85-6.32-7.46,3.45.61,6.38,4.76,7.88,7.46a30.12,30.12,0,0,1,2.26,5.25c2.25,6.93,2.23,14.68,1.31,21.75-.11.81-.23,1.61-.36,2.39h-2.19C468,289.25,468.08,288.45,468.16,287.64Z"/><path class="cls-6" d="M447.24,265.89a29.42,29.42,0,0,1,2.27-5.25c1.61-2.91,4.88-7.5,8.67-7.54h.08c-3,.1-5.6,4.65-6.89,7.53a33.85,33.85,0,0,0-1.81,5.25c-1.81,6.93-1.8,14.68-1.06,21.75.09.81.19,1.61.3,2.39h-2.5c-.14-.78-.26-1.58-.36-2.39C445,280.57,445,272.82,447.24,265.89Z"/><path class="cls-7" d="M465.29,260.64a32.87,32.87,0,0,1,1.82,5.25c1.81,6.93,1.79,14.68,1.05,21.75-.08.81-.18,1.61-.29,2.39H448.8c-.11-.78-.21-1.58-.3-2.39-.74-7.07-.75-14.82,1.06-21.75a33.85,33.85,0,0,1,1.81-5.25c1.29-2.88,3.88-7.43,6.89-7.53a5.51,5.51,0,0,1,.71.07C461.74,253.79,464.09,257.94,465.29,260.64Z"/><path class="cls-8" d="M467.87,290h2.19c-.11.62-.22,1.23-.34,1.82a92.92,92.92,0,0,1-23.09,0c-.12-.59-.23-1.2-.33-1.82h21.57Z"/><path class="cls-9" d="M502.79,283.77c1.06,3.41,3.37,9.42,7.23,12.52h36.85c3.86-3.1,6.17-9.11,7.23-12.52Z"/><path class="cls-10" d="M514.31,286.9a1.38,1.38,0,1,1-1.68,1.34,1.53,1.53,0,0,1,1.68-1.34m0-1.18a2.57,2.57,0,1,0,3.08,2.52,2.84,2.84,0,0,0-3.08-2.52Z"/><path class="cls-10" d="M528.3,286.9a1.38,1.38,0,1,1-1.68,1.34,1.54,1.54,0,0,1,1.68-1.34m0-1.18a2.57,2.57,0,1,0,3.07,2.52,2.84,2.84,0,0,0-3.07-2.52Z"/><path class="cls-10" d="M542.29,286.9a1.38,1.38,0,1,1-1.68,1.34,1.54,1.54,0,0,1,1.68-1.34m0-1.18a2.57,2.57,0,1,0,3.08,2.52,2.83,2.83,0,0,0-3.08-2.52Z"/><path class="cls-6" d="M490.05,277.12q1.4,3.51,2.93,6.65h5.6c-.95-1.95-1.86-4-2.74-6.2C493.88,277.43,491.94,277.28,490.05,277.12Z"/><path class="cls-7" d="M527.28,278.68c-11.06,0-21.64-.4-31.44-1.11.88,2.17,1.79,4.25,2.74,6.2h59.27c1-2,1.9-4.12,2.79-6.34C550.3,278.23,539.06,278.68,527.28,278.68Z"/><path class="cls-6" d="M557.85,283.77h5.6q1.56-3.21,3-6.83-2.85.27-5.81.49C559.75,279.65,558.82,281.78,557.85,283.77Z"/><path class="cls-8" d="M560.85,276.94l-.21.49q3-.23,5.81-.49a135.63,135.63,0,0,0,5.71-18.2c-1.87.2-3.79.4-5.75.58A133.54,133.54,0,0,1,560.85,276.94Z"/><path class="cls-9" d="M490.06,259.5a135.47,135.47,0,0,0,5.58,17.62l.2.45c9.8.71,20.38,1.11,31.44,1.11,11.78,0,23-.45,33.36-1.25l.21-.49a133.54,133.54,0,0,0,5.56-17.62c-11.86,1.11-25.12,1.74-39.13,1.74C514,261.06,501.43,260.5,490.06,259.5Z"/><path class="cls-8" d="M495.64,277.12a135.47,135.47,0,0,1-5.58-17.62c-1.95-.17-3.87-.35-5.74-.55a135.1,135.1,0,0,0,5.73,18.17c1.89.16,3.83.31,5.79.45Z"/><path class="cls-11" d="M499.32,172c.13-.21.27-.41.4-.61-2.06.18-4.07.39-6,.61-1,1.65-2,3.33-3,5.07,1.91-.25,3.93-.48,6-.7Q498,174.13,499.32,172Z"/><path class="cls-12" d="M556.71,171.38c-8.57-.78-18.23-1.24-28.5-1.24s-19.93.46-28.49,1.24c-.13.2-.27.4-.4.61q-1.33,2.13-2.61,4.37a327.16,327.16,0,0,1,63,0q-1.26-2.24-2.6-4.37Z"/><path class="cls-11" d="M557.11,172q1.33,2.13,2.6,4.37c2.07.22,4.09.45,6,.7-1-1.74-2-3.42-3-5.07-1.92-.22-3.93-.43-6-.61Z"/><path class="cls-9" d="M556.71,171.38c-9.6-15-21.6-30.62-28.5-36.38-6.9,5.76-18.9,21.33-28.49,36.38,8.56-.78,18.23-1.24,28.49-1.24S548.14,170.6,556.71,171.38Z"/><path class="cls-8" d="M531,137.12c-1.76-1.39-2.8-2.12-2.8-2.12s-1,.73-2.79,2.12c-6,4.73-20.57,17.18-31.7,34.87,1.93-.22,3.94-.43,6-.61,9.59-15,21.59-30.62,28.49-36.38,6.9,5.76,18.9,21.33,28.5,36.38,2.06.18,4.07.39,6,.61C551.57,154.3,537,141.85,531,137.12Z"/><path class="cls-6" d="M565.71,177.06c-1.91-.25-3.93-.48-6-.7.13.24.27.46.4.7,6.51,11.68,11.24,25.31,11.24,40.3,0,3.57-.12,7.08-.31,10.54-.34,6-1,11.82-1.83,17.38-.72,4.68-1.61,9.18-2.64,13.46-.05.2-.11.38-.16.58,2-.18,3.88-.38,5.75-.58,1-4.28,1.92-8.78,2.65-13.46.86-5.56,1.48-11.38,1.83-17.38.19-3.46.3-7,.3-10.54C576.94,202.37,572.22,188.74,565.71,177.06Z"/><path class="cls-6" d="M489.91,259c-1.07-4.41-2-9-2.73-13.87-.85-5.58-1.48-11.4-1.81-17.42q-.28-5.07-.29-10.3c0-15,4.73-28.62,11.23-40.3.13-.24.27-.46.4-.7-2.06.22-4.08.45-6,.7-6.51,11.68-11.24,25.31-11.24,40.3,0,3.49.11,6.92.29,10.3.34,6,1,11.84,1.82,17.42.74,4.82,1.66,9.46,2.73,13.87,1.87.2,3.79.38,5.74.55Z"/><path class="cls-7" d="M496.71,176.36c-.13.24-.27.46-.4.7-6.5,11.68-11.23,25.31-11.23,40.3q0,5.23.29,10.3c.33,6,1,11.84,1.81,17.42.75,4.82,1.66,9.46,2.73,13.87l.15.55c11.37,1,23.95,1.56,37.22,1.56,14,0,27.27-.63,39.13-1.74.05-.2.11-.38.16-.58,1-4.28,1.92-8.78,2.64-13.46.86-5.56,1.49-11.38,1.83-17.38.19-3.46.31-7,.31-10.54,0-15-4.73-28.62-11.24-40.3-.13-.24-.27-.46-.4-.7a327.16,327.16,0,0,0-63,0Z"/><path class="cls-13" d="M528.45,196.85c13,0,23.55,8.87,23.55,19.77s-10.57,19.77-23.55,19.77-23.56-8.86-23.56-19.77,10.57-19.77,23.56-19.77m0-3.52c-15.33,0-27.75,10.43-27.75,23.29s12.42,23.3,27.75,23.3,27.75-10.43,27.75-23.3-12.43-23.29-27.75-23.29Z"/><path class="cls-3" d="M552,216.62c0-10.9-10.57-19.77-23.55-19.77a27,27,0,0,0-11.76,2.66l32.14,27A17.33,17.33,0,0,0,552,216.62Z"/><path class="cls-3" d="M504.89,216.62c0,10.91,10.57,19.77,23.56,19.77a26.47,26.47,0,0,0,13.73-3.74L509.35,205.1A17.62,17.62,0,0,0,504.89,216.62Z"/><path class="cls-4" d="M548.83,226.49l-32.14-27a24.6,24.6,0,0,0-2.51,1.42l33,27.67A21.1,21.1,0,0,0,548.83,226.49Z"/><path class="cls-5" d="M547.14,228.6l-33-27.67a21.86,21.86,0,0,0-4.83,4.17l32.83,27.55A22.34,22.34,0,0,0,547.14,228.6Z"/><g class="cls-14"><path class="cls-4" d="M509.35,205.1a19.06,19.06,0,0,0-3,4.82l30.2,25.25a25.39,25.39,0,0,0,5.66-2.52,22.36,22.36,0,0,0,2.88-2.06l-33.32-27.85A20.5,20.5,0,0,0,509.35,205.1Z"/></g><path class="cls-11" d="M528.45,237.57c-13.76,0-25-9.4-25-20.95a18.65,18.65,0,0,1,4.72-12.21,23.27,23.27,0,0,1,5.12-4.41,25.85,25.85,0,0,1,2.66-1.5,28.58,28.58,0,0,1,12.46-2.82c13.75,0,24.95,9.4,24.95,20.94A18.41,18.41,0,0,1,550,227.08a21.58,21.58,0,0,1-1.79,2.23,23.93,23.93,0,0,1-5.25,4.3A28.09,28.09,0,0,1,528.45,237.57Zm0-39.54a25.42,25.42,0,0,0-11.06,2.5,22.93,22.93,0,0,0-2.36,1.33,21.09,21.09,0,0,0-4.55,3.92,16.57,16.57,0,0,0-4.19,10.84c0,10.26,9.94,18.6,22.16,18.6a24.92,24.92,0,0,0,12.91-3.52,21,21,0,0,0,4.67-3.81,18.85,18.85,0,0,0,1.58-2,16.28,16.28,0,0,0,3-9.28C550.6,206.37,540.66,198,528.45,198Z"/><path class="cls-15" d="M504.76,264c3.36,0,6.09,2.3,6.09,5.11s-2.73,5.12-6.09,5.12-6.09-2.29-6.09-5.12,2.73-5.11,6.09-5.11m0-.91c-4,0-7.18,2.7-7.18,6s3.22,6,7.18,6,7.18-2.7,7.18-6-3.21-6-7.18-6Z"/><path class="cls-16" d="M510.85,269.08c0-2.81-2.73-5.11-6.09-5.11a7,7,0,0,0-3,.69l8.31,7A4.46,4.46,0,0,0,510.85,269.08Z"/><path class="cls-16" d="M498.67,269.08c0,2.83,2.73,5.12,6.09,5.12a6.8,6.8,0,0,0,3.55-1l-8.49-7.12A4.54,4.54,0,0,0,498.67,269.08Z"/><path class="cls-17" d="M510,271.64l-8.31-7c-.22.11-.44.24-.65.37l8.53,7.15A4.43,4.43,0,0,0,510,271.64Z"/><path class="cls-18" d="M509.6,272.18,501.07,265a5.66,5.66,0,0,0-1.25,1.08l8.49,7.12A5.49,5.49,0,0,0,509.6,272.18Z"/><path class="cls-19" d="M504.76,274.5c-3.56,0-6.45-2.43-6.45-5.42a4.8,4.8,0,0,1,1.22-3.15,6.42,6.42,0,0,1,2-1.53,7.37,7.37,0,0,1,3.22-.73c3.56,0,6.45,2.43,6.45,5.41a4.81,4.81,0,0,1-.86,2.71,5,5,0,0,1-.47.58,6.4,6.4,0,0,1-1.35,1.11A7.27,7.27,0,0,1,504.76,274.5Zm0-10.22a6.68,6.68,0,0,0-2.86.64c-.2.11-.41.22-.61.35a5.46,5.46,0,0,0-1.17,1,4.29,4.29,0,0,0-1.09,2.8c0,2.66,2.57,4.82,5.73,4.82a6.49,6.49,0,0,0,3.34-.91,5.34,5.34,0,0,0,1.21-1,6.11,6.11,0,0,0,.41-.51,4.21,4.21,0,0,0,.77-2.41C510.49,266.43,507.92,264.28,504.76,264.28Z"/><g class="cls-14"><path class="cls-18" d="M499.82,266.11a5.06,5.06,0,0,0-.78,1.24l7.81,6.53a6.42,6.42,0,0,0,1.46-.65,5.92,5.92,0,0,0,.75-.53l-8.62-7.2A5.1,5.1,0,0,0,499.82,266.11Z"/></g><path class="cls-15" d="M528.55,264c3.36,0,6.09,2.3,6.09,5.11s-2.73,5.12-6.09,5.12-6.09-2.29-6.09-5.12,2.73-5.11,6.09-5.11m0-.91c-4,0-7.18,2.7-7.18,6s3.21,6,7.18,6,7.18-2.7,7.18-6-3.22-6-7.18-6Z"/><path class="cls-16" d="M534.64,269.08c0-2.81-2.73-5.11-6.09-5.11a7,7,0,0,0-3,.69l8.31,7A4.46,4.46,0,0,0,534.64,269.08Z"/><path class="cls-16" d="M522.46,269.08c0,2.83,2.73,5.12,6.09,5.12a6.83,6.83,0,0,0,3.55-1l-8.49-7.12A4.54,4.54,0,0,0,522.46,269.08Z"/><path class="cls-17" d="M533.82,271.64l-8.31-7a5.79,5.79,0,0,0-.65.37l8.52,7.15A4.51,4.51,0,0,0,533.82,271.64Z"/><path class="cls-18" d="M533.38,272.18,524.86,265a5.44,5.44,0,0,0-1.25,1.08l8.49,7.12A5.25,5.25,0,0,0,533.38,272.18Z"/><path class="cls-19" d="M528.55,274.5c-3.56,0-6.46-2.43-6.46-5.42a4.81,4.81,0,0,1,1.23-3.15,5.83,5.83,0,0,1,1.32-1.14,4.7,4.7,0,0,1,.69-.39,7.34,7.34,0,0,1,3.22-.73c3.56,0,6.45,2.43,6.45,5.41a4.77,4.77,0,0,1-.87,2.71,5.09,5.09,0,0,1-.46.58,6.22,6.22,0,0,1-1.36,1.11A7.26,7.26,0,0,1,528.55,274.5Zm0-10.22a6.61,6.61,0,0,0-2.86.64,6,6,0,0,0-.61.35,5.52,5.52,0,0,0-1.18,1,4.26,4.26,0,0,0-1.08,2.8c0,2.66,2.57,4.82,5.73,4.82a6.51,6.51,0,0,0,3.34-.91,5.57,5.57,0,0,0,1.21-1c.14-.16.28-.34.41-.51a4.3,4.3,0,0,0,.77-2.41C534.28,266.43,531.71,264.28,528.55,264.28Z"/><g class="cls-14"><path class="cls-18" d="M523.61,266.11a5.1,5.1,0,0,0-.79,1.24l7.82,6.53a6.2,6.2,0,0,0,2.2-1.18l-8.61-7.2A4.47,4.47,0,0,0,523.61,266.11Z"/></g><path class="cls-15" d="M552.33,264c3.36,0,6.1,2.3,6.1,5.11s-2.74,5.12-6.1,5.12-6.09-2.29-6.09-5.12S549,264,552.33,264m0-.91c-4,0-7.17,2.7-7.17,6s3.21,6,7.17,6,7.18-2.7,7.18-6-3.21-6-7.18-6Z"/><path class="cls-16" d="M558.43,269.08c0-2.81-2.74-5.11-6.1-5.11a7.07,7.07,0,0,0-3,.69l8.31,7A4.47,4.47,0,0,0,558.43,269.08Z"/><path class="cls-16" d="M546.24,269.08c0,2.83,2.73,5.12,6.09,5.12a6.87,6.87,0,0,0,3.56-1l-8.49-7.12A4.5,4.5,0,0,0,546.24,269.08Z"/><path class="cls-17" d="M557.6,271.64l-8.31-7c-.22.11-.44.24-.65.37l8.53,7.15A4.43,4.43,0,0,0,557.6,271.64Z"/><path class="cls-18" d="M557.17,272.18,548.64,265a5.6,5.6,0,0,0-1.24,1.08l8.49,7.12A5.44,5.44,0,0,0,557.17,272.18Z"/><path class="cls-19" d="M552.33,274.5c-3.56,0-6.45-2.43-6.45-5.42a4.8,4.8,0,0,1,1.22-3.15,5.89,5.89,0,0,1,1.33-1.14,4.7,4.7,0,0,1,.69-.39,7.33,7.33,0,0,1,3.21-.73c3.56,0,6.46,2.43,6.46,5.41a4.74,4.74,0,0,1-.87,2.71,6.15,6.15,0,0,1-.46.58,6.41,6.41,0,0,1-1.36,1.11A7.27,7.27,0,0,1,552.33,274.5Zm0-10.22a6.6,6.6,0,0,0-2.85.64,6,6,0,0,0-.61.35,5.29,5.29,0,0,0-1.18,1,4.29,4.29,0,0,0-1.09,2.8c0,2.66,2.57,4.82,5.73,4.82a6.55,6.55,0,0,0,3.35-.91,5.51,5.51,0,0,0,1.2-1,6.11,6.11,0,0,0,.41-.51,4.21,4.21,0,0,0,.77-2.41C558.06,266.43,555.49,264.28,552.33,264.28Z"/><g class="cls-14"><path class="cls-18" d="M547.4,266.11a4.82,4.82,0,0,0-.79,1.24l7.81,6.53a6.5,6.5,0,0,0,1.47-.65,6.61,6.61,0,0,0,.74-.53L548,265.5A4.4,4.4,0,0,0,547.4,266.11Z"/></g><path class="cls-10" d="M506,166.93a1.8,1.8,0,0,1,2.14,1.13,1.55,1.55,0,0,1-1.46,1.7,1.83,1.83,0,0,1-2.14-1.1c-.2-.78.45-1.56,1.46-1.73m-.1-.43c-1.32.22-2.16,1.24-1.88,2.26a2.38,2.38,0,0,0,2.76,1.43,2,2,0,0,0,1.89-2.21,2.32,2.32,0,0,0-2.77-1.48Z"/><path class="cls-10" d="M516.78,165.57a1.72,1.72,0,0,1,2,1.3,1.63,1.63,0,0,1-1.65,1.58,1.76,1.76,0,0,1-2-1.28c-.11-.79.63-1.52,1.65-1.6m-.06-.44c-1.33.12-2.28,1.06-2.13,2.1a2.29,2.29,0,0,0,2.58,1.65,2.09,2.09,0,0,0,2.13-2,2.23,2.23,0,0,0-2.58-1.7Z"/><path class="cls-10" d="M527.69,165.12a1.65,1.65,0,0,1,1.82,1.45,1.88,1.88,0,0,1-3.65,0,1.66,1.66,0,0,1,1.83-1.45m0-.44a2.14,2.14,0,0,0-2.37,1.91,2.43,2.43,0,0,0,4.73,0,2.13,2.13,0,0,0-2.36-1.91Z"/><path class="cls-10" d="M538.59,165.57c1,.08,1.76.81,1.65,1.6a1.76,1.76,0,0,1-2,1.28,1.63,1.63,0,0,1-1.65-1.58,1.73,1.73,0,0,1,2-1.3m0-.44a2.23,2.23,0,0,0-2.57,1.7,2.09,2.09,0,0,0,2.13,2,2.29,2.29,0,0,0,2.58-1.65c.15-1-.8-2-2.14-2.1Z"/><path class="cls-10" d="M549.42,166.93c1,.17,1.66,1,1.45,1.73a1.82,1.82,0,0,1-2.13,1.1,1.54,1.54,0,0,1-1.46-1.7,1.79,1.79,0,0,1,2.14-1.13m.1-.43a2.31,2.31,0,0,0-2.77,1.48,2,2,0,0,0,1.89,2.21,2.37,2.37,0,0,0,2.76-1.43c.28-1-.56-2-1.88-2.26Z"/></svg>