<svg xmlns="http://www.w3.org/2000/svg" width="48" height="48"><path d="M40.95 22.307l-2.406-6.01c-.3-.785-1.07-1.3-1.913-1.3h-26.57a2.061 2.061 0 00-2.062 2.071v11.687c0 1.14.924 2.063 2.063 2.063h1.472a2.737 2.737 0 005.3 0H32.16a2.737 2.737 0 005.3 0h1.473A2.06 2.06 0 0041 28.75v-6.183a.69.69 0 00-.049-.26zm-6.826-5.932h2.507a.69.69 0 01.638.432l1.752 4.38h-4.9v-4.812zm-6.187 0h4.812v4.813h-4.813zm-6.875 0h5.5v4.813h-5.5v-4.813zm-6.188 0h4.813v4.813h-4.813zm-5.5.687a.69.69 0 01.688-.688H13.5v4.813H9.375zM14.188 31.5a1.375 1.375 0 110-2.75 1.375 1.375 0 010 2.75zm20.625 0a1.375 1.375 0 110-2.75 1.375 1.375 0 010 2.75zm4.813-7.563h-.688a.69.69 0 00-.662.688.69.69 0 00.662.688h.688v3.437a.69.69 0 01-.688.688h-1.473a2.737 2.737 0 00-5.3 0H16.84a2.737 2.737 0 00-5.3 0h-1.477a.69.69 0 01-.688-.688v-6.182h30.2l.053.132v1.243z" fill="#0065ff"/></svg>